<?xml version="1.0" encoding="utf-8"?>
<!-- Generator: Adobe Illustrator 23.0.1, SVG Export Plug-In . SVG Version: 6.00 Build 0)  -->
<svg version="1.1" id="Capa_1" xmlns="http://www.w3.org/2000/svg" xmlns:xlink="http://www.w3.org/1999/xlink" x="0px" y="0px"
	 viewBox="0 0 70 62.5" style="enable-background:new 0 0 70 62.5;" xml:space="preserve">
<style type="text/css">
	.st0{fill:none;stroke:#CB4F24;stroke-width:1.23;stroke-linecap:round;stroke-linejoin:round;stroke-dasharray:2.43,3.65;}
	.st1{fill:none;stroke:#68A8DE;stroke-width:1.23;stroke-miterlimit:10;}
</style>
<title>HyperHyperSpaceIsoLogo</title>
<path class="st0" d="M57.4,13.5l0.7,26.1c-0.2,2.1-2.2,3.6-4.3,3.4l-25.5-2.9c-2.1-0.2-3.6-2.1-3.4-4.2c0,0,0,0,0,0L24.2,9.7
	c0.2-2.1,2.1-3.6,4.2-3.4c0,0,0,0,0,0L54,9.2C56.1,9.4,57.6,11.3,57.4,13.5C57.4,13.4,57.4,13.4,57.4,13.5z"/>
<path class="st1" d="M40.9,27.4l0.7,26.1c-0.2,2.1-2.1,3.6-4.2,3.4c0,0,0,0,0,0L11.9,54c-2.1-0.2-3.6-2.1-3.4-4.2c0,0,0,0,0,0
	L7.8,23.7c0.2-2.1,2.1-3.6,4.3-3.4l25.5,2.9C39.6,23.4,41.2,25.3,40.9,27.4z"/>
<path class="st1" d="M46.3,22.7L47,48.8c-0.2,2.1-2.1,3.6-4.2,3.4c0,0,0,0,0,0l-25.4-2.9c-2.1-0.2-3.6-2.1-3.4-4.2c0,0,0,0,0,0
	l-0.7-26.1c0.2-2.1,2.1-3.6,4.3-3.4L43,18.4C45.1,18.6,46.6,20.6,46.3,22.7C46.3,22.7,46.3,22.7,46.3,22.7z"/>
<path class="st1" d="M51.8,17.9L52.4,44c-0.2,2.1-2.1,3.6-4.2,3.4c0,0,0,0,0,0l-25.5-2.9c-2.1-0.2-3.6-2.1-3.4-4.2c0,0,0,0,0,0
	l-0.7-26.1c0.2-2.1,2.1-3.6,4.2-3.4c0,0,0,0,0,0l25.5,2.9C50.4,13.9,52,15.8,51.8,17.9C51.8,17.9,51.8,17.9,51.8,17.9z"/>
</svg>
