<svg xmlns="http://www.w3.org/2000/svg" viewBox="0 0 264.583 264.583" height="1000" width="1000"><g fill="#fff"><circle r="1" cx="45.612" cy="172.724"/><circle cy="235.924" cx="31.255" r="1"/><circle cy="128.556" cx="113.572" r="1"/><circle r="1" cx="197.842" cy="254.697"/><circle cy="157.71" cx="94.854" r="1"/><circle r="1" cx="141.963" cy="175.094"/><circle cy="178.193" cx="214.704" r="1"/><circle r="1" cx="134.202" cy="215.447"/><circle r=".75" cx="116.668" cy="185.215"/><circle cy="240.201" cx="66.829" r=".75"/><circle cy="256.307" cx="236.043" r=".75"/><circle r=".75" cx="84.619" cy="112.833"/><circle cy="203.831" cx="97.385" r=".75"/><circle r=".75" cx="197.933" cy="174.753"/><circle r=".75" cx="90.923" cy="134.086"/><circle cy="241.022" cx="117.298" r=".75"/><circle cy="261.087" cx="6.079" r=".75"/><circle r=".75" cx="68.178" cy="144.116"/><circle r=".75" cx="181.392" cy="124.04"/><circle cy="131.263" cx="21.586" r=".75"/><circle r=".75" cx="176.785" cy="233.587"/><circle cy="142.264" cx="155.529" r=".75"/><circle cy="150.324" cx="244.704" r=".75"/><circle r=".75" cx="49.063" cy="199.257"/><circle cy="141.205" cx="122.46" r=".75"/><circle r=".75" cx="211.989" cy="203.784"/><circle r=".75" cx="19.036" cy="188.331"/><circle cy="153.654" cx="209.272" r=".75"/><circle r=".75" cx="184.288" cy="170.351"/><circle cy="260.942" cx="131.568" r=".75"/><circle cy="182.812" cx="74.754" r=".75"/><circle r=".75" cx="245.837" cy="213.648"/><circle cy="172.045" cx="25.814" r=".5"/><circle cy="146.539" cx="94.501" r=".5"/><circle r=".5" cx="9.311" cy="205.282"/><circle r=".5" cx="80.12" cy="170.083"/><circle cy="130.812" cx="143.8" r=".5"/><circle r=".5" cx="92.828" cy="234.159"/><circle cy="220.296" cx="112.35" r=".5"/><circle cy="208.669" cx="180.841" r=".5"/><circle r=".5" cx="155.433" cy="219.408"/><circle r=".5" cx="95.671" cy="191.307"/><circle cy="229.514" cx="217.551" r=".5"/><circle r=".5" cx="63.656" cy="256.76"/><circle cy="181.458" cx="57.032" r=".5"/><circle cy="202.358" cx="122.151" r=".5"/><circle r=".5" cx="133.948" cy="210.036"/><circle cy="263.153" cx="34.498" r=".5"/><circle r=".5" cx="69.088" cy="208.242"/><circle r=".5" cx="226.588" cy="159.729"/><circle cy="221.534" cx="82.484" r=".5"/><circle r=".5" cx="244.995" cy="194.964"/><circle cy="153.109" cx="47.215" r=".5"/><circle cy="139.708" cx="235.212" r=".5"/><circle r=".5" cx="204.881" cy="195.712"/><circle r=".5" cx="11.506" cy="226.921"/><circle cy="141.409" cx="187.893" r=".5"/><circle cy="225.002" cx="48.61" r=".5"/><circle r=".5" cx="105.404" cy="251.331"/><circle cy="241.001" cx="157.261" r=".5"/><circle r=".5" cx="60.655" cy="172.008"/><circle r=".5" cx="148.36" cy="228.5"/><circle cy="218.639" cx="191.976" r=".5"/><circle r=".5" cx="149.144" cy="248.038"/><circle cy="175.131" cx="128.932" r=".5"/><circle cy="192.12" cx="136.992" r=".5"/><circle r=".5" cx="136.224" cy="236.795"/><circle cy="191.97" cx="224.861" r=".5"/><circle r=".5" cx="236.248" cy="228.364"/><circle r=".5" cx="152.495" cy="188.758"/><circle cy="205.389" cx="154.753" r=".5"/><circle cy="163.571" cx="113.758" r=".5"/><circle r=".5" cx="87.406" cy="245.694"/><circle r=".5" cx="19.803" cy="154.819"/><circle cy="157.71" cx="148.607" r=".5"/><circle r=".5" cx="159.82" cy="176.401"/><circle cy="170.82" cx="242.052" r=".5"/><circle cy="187.184" cx="176.96" r=".5"/><circle r=".5" cx="133.489" cy="156.659"/><circle r=".5" cx="3.769" cy="162.293"/><circle cy="186.464" cx="189.807" r=".5"/><circle cy="241.858" cx="44.986" r=".5"/><circle r=".5" cx="25.486" cy="211.102"/><circle cy="205.544" cx="72.942" r=".5"/><circle r=".5" cx="200.384" cy="236.371"/><circle r=".5" cx="261.919" cy="137.301"/><circle cy="249.547" cx="255.573" r=".5"/><circle r=".5" cx="171.901" cy="160.304"/><circle cy="240.963" cx="228.512" r=".5"/><circle cy="175.197" cx="93.493" r=".5"/><circle r=".5" cx="171.342" cy="217.394"/><circle cy="205.526" cx="224.586" r=".5"/><circle r=".5" cx="255.413" cy="183.253"/><circle r=".5" cx="173.331" cy="200.335"/><circle cy="258.517" cx="171.441" r=".5"/><circle cy="101.938" cx="146.532" r="1"/><circle r="1" cx="238.566" cy="24.408"/><circle r="1" cx="226.234" cy="113.619"/><circle cy="31.082" cx="113.234" r="1"/><circle r="1" cx="42.976" cy="99.2"/><circle cy="26.107" cx="30.024" r="1"/><circle r="1" cx="54.52" cy="59.313"/><circle cy="52.13" cx="193.942" r="1"/><circle cy="114.412" cx="12.329" r=".75"/><circle r=".75" cx="83.175" cy="81.274"/><circle r=".75" cx="160.179" cy="51.45"/><circle cy="18.59" cx="6.466" r=".75"/><circle r=".75" cx="183.856" cy="83.169"/><circle cy="67.388" cx="113.866" r=".75"/><circle cy="79.8" cx="26.221" r=".75"/><circle r=".75" cx="215.685" cy="131.413"/><circle r=".75" cx="261.073" cy="6.102"/><circle cy="94.401" cx="110.725" r=".75"/><circle cy="10.042" cx="133.727" r=".75"/><circle r=".75" cx="207.31" cy="72.854"/><circle cy="34.813" cx="76.093" r=".75"/><circle r=".75" cx="224.393" cy="42.582"/><circle r=".75" cx="107.186" cy="48.686"/><circle cy="95.441" cx="215.485" r=".75"/><circle r=".75" cx="141.621" cy="64.655"/><circle cy="66.729" cx="236.092" r=".75"/><circle cy="118.413" cx="245.962" r=".75"/><circle r=".75" cx="197.973" cy="4.47"/><circle cy="65.327" cx="10.667" r=".75"/><circle r=".75" cx="169.076" cy="21.619"/><circle r=".75" cx="243.684" cy="89.394"/><circle cy="15.924" cx="90.642" r=".75"/><circle r=".5" cx="203.117" cy="25.203"/><circle cy="18.679" cx="259.074" r=".5"/><circle r=".5" cx="188.36" cy="105.076"/><circle r=".5" cx="32.082" cy="60.833"/><circle cy="97.39" cx="88.918" r=".5"/><circle r=".5" cx="52.106" cy="115.649"/><circle cy="123.671" cx="158.843" r=".5"/><circle cy="149.977" cx="228.269" r=".5"/><circle r=".5" cx="104.923" cy="106.209"/><circle cy="28.098" cx="152.36" r=".5"/><circle r=".5" cx="229.272" cy="175.956"/><circle r=".5" cx="197.598" cy="109.619"/><circle cy="126.742" cx="199.934" r=".5"/><circle r=".5" cx="165.89" cy="104.799"/><circle cy="94.672" cx="203.759" r=".5"/><circle cy="87.856" cx="125.505" r=".5"/><circle r=".5" cx="223.212" cy="79.49"/><circle cy="4.333" cx="11.392" r=".5"/><circle r=".5" cx="121.635" cy="104.136"/><circle r=".5" cx="132.905" cy="116.524"/><circle cy="46.448" cx="90.707" r=".5"/><circle cy="97.177" cx="66.145" r=".5"/><circle r=".5" cx="151.181" cy="83.93"/><circle r=".5" cx="45.908" cy="12.875"/><circle cy="89.361" cx="170.02" r=".5"/><circle r=".5" cx="36.048" cy="112.885"/><circle cy="91.86" cx="1.643" r=".5"/><circle cy="73.334" cx="131.517" r=".5"/><circle r=".5" cx="173.424" cy="79.168"/><circle cy="8.253" cx="59.46" r=".5"/><circle r=".5" cx="223.516" cy="23.397"/><circle r=".5" cx="249.224" cy="43.717"/><circle cy="39.06" cx="201.492" r=".5"/><circle r=".5" cx="112.002" cy="13.529"/><circle cy="127.379" cx="169.217" r=".5"/><circle cy="67.963" cx="185.446" r=".5"/><circle r=".5" cx="216.42" cy="117.416"/><circle r=".5" cx="179.959" cy="43.044"/><circle cy=".312" cx="48.348" r=".5"/><circle cy="132.732" cx="42.913" r=".5"/><circle r=".5" cx="142.119" cy="36.324"/><circle cy="92.185" cx="229.232" r=".5"/><circle r=".5" cx="98.773" cy="6.294"/><circle r=".5" cx="101.757" cy="81.974"/><circle cy="38.611" cx="62.785" r=".5"/><circle cy="2.099" cx="158.208" r=".5"/><circle r=".5" cx="121.572" cy="46.871"/><circle r=".5" cx="53.426" cy="79.029"/><circle cy="46.765" cx="31.373" r=".5"/><circle r=".5" cx="85.519" cy="66.355"/><circle cy="46.981" cx="9.695" r=".5"/><circle cy="18.012" cx="186.147" r=".5"/><circle r=".5" cx="212.447" cy="9.75"/><circle cy="55.866" cx="252.928" r=".5"/><circle r=".5" cx="73.34" cy="56.742"/><circle r=".5" cx="258.914" cy="165.121"/><circle cy="79.112" cx="255.393" r=".5"/><circle r=".5" cx="235.737" cy="9.162"/><circle cy="60.581" cx="216.592" r=".5"/><circle cy="129.075" cx="77.036" r=".5"/><circle r=".5" cx="243.825" cy="102.243"/></g></svg>