<?xml version="1.0" encoding="UTF-8" standalone="no"?>
<svg
   xmlns:dc="http://purl.org/dc/elements/1.1/"
   xmlns:cc="http://creativecommons.org/ns#"
   xmlns:rdf="http://www.w3.org/1999/02/22-rdf-syntax-ns#"
   xmlns:svg="http://www.w3.org/2000/svg"
   xmlns="http://www.w3.org/2000/svg"
   xmlns:sodipodi="http://sodipodi.sourceforge.net/DTD/sodipodi-0.dtd"
   xmlns:inkscape="http://www.inkscape.org/namespaces/inkscape"
   inkscape:version="1.0 (4035a4fb49, 2020-05-01)"
   sodipodi:docname="starfield2.svg"
   id="svg388"
   version="1.1"
   width="1000"
   height="1000"
   viewBox="0 0 264.583 264.583">
  <metadata
     id="metadata394">
    <rdf:RDF>
      <cc:Work
         rdf:about="">
        <dc:format>image/svg+xml</dc:format>
        <dc:type
           rdf:resource="http://purl.org/dc/dcmitype/StillImage" />
        <dc:title></dc:title>
      </cc:Work>
    </rdf:RDF>
  </metadata>
  <defs
     id="defs392" />
  <sodipodi:namedview
     inkscape:current-layer="svg388"
     inkscape:window-maximized="1"
     inkscape:window-y="1110"
     inkscape:window-x="0"
     inkscape:cy="500"
     inkscape:cx="500"
     inkscape:zoom="0.823"
     showgrid="false"
     id="namedview390"
     inkscape:window-height="1011"
     inkscape:window-width="1920"
     inkscape:pageshadow="2"
     inkscape:pageopacity="0"
     guidetolerance="10"
     gridtolerance="10"
     objecttolerance="10"
     borderopacity="1"
     bordercolor="#666666"
     pagecolor="#ffffff" />
  <g
     style="fill:#000000"
     id="g386"
     fill="#fff">
    <path
       style="fill:#000000"
       d="m 46.612,172.724 a 1,1 0 0 1 -1,1 1,1 0 0 1 -1,-1 1,1 0 0 1 1,-1 1,1 0 0 1 1,1"
       id="circle10" />
    <path
       style="fill:#000000"
       d="m 32.254999,235.924 a 1,1 0 0 1 -1,1 1,1 0 0 1 -1,-1 1,1 0 0 1 1,-1 1,1 0 0 1 1,1"
       id="circle12" />
    <path
       style="fill:#000000"
       d="m 114.572,128.556 a 1,1 0 0 1 -1,1 1,1 0 0 1 -1,-1 1,1 0 0 1 1,-1 1,1 0 0 1 1,1"
       id="circle14" />
    <path
       style="fill:#000000"
       d="m 198.842,254.69701 a 1,1 0 0 1 -1,1 1,1 0 0 1 -1,-1 1,1 0 0 1 1,-1 1,1 0 0 1 1,1"
       id="circle16" />
    <path
       style="fill:#000000"
       d="m 95.853996,157.71001 a 1,1 0 0 1 -1,1 1,1 0 0 1 -1,-1 1,1 0 0 1 1,-1 1,1 0 0 1 1,1"
       id="circle18" />
    <path
       style="fill:#000000"
       d="m 142.963,175.09399 a 1,1 0 0 1 -1,1 1,1 0 0 1 -1,-1 1,1 0 0 1 1,-1 1,1 0 0 1 1,1"
       id="circle20" />
    <path
       style="fill:#000000"
       d="m 215.70399,178.19299 a 1,1 0 0 1 -1,1 1,1 0 0 1 -1,-1 1,1 0 0 1 1,-1 1,1 0 0 1 1,1"
       id="circle22" />
    <path
       style="fill:#000000"
       d="m 135.202,215.44701 a 1,1 0 0 1 -1,1 1,1 0 0 1 -1,-1 1,1 0 0 1 1,-1 1,1 0 0 1 1,1"
       id="circle24" />
    <path
       style="fill:#000000"
       d="m 117.418,185.215 a 0.75,0.75 0 0 1 -0.75,0.75 0.75,0.75 0 0 1 -0.75,-0.75 0.75,0.75 0 0 1 0.75,-0.75 0.75,0.75 0 0 1 0.75,0.75"
       id="circle26" />
    <path
       style="fill:#000000"
       d="m 67.579002,240.201 a 0.75,0.75 0 0 1 -0.75,0.75 0.75,0.75 0 0 1 -0.75,-0.75 0.75,0.75 0 0 1 0.75,-0.75 0.75,0.75 0 0 1 0.75,0.75"
       id="circle28" />
    <path
       style="fill:#000000"
       d="m 236.793,256.30701 a 0.75,0.75 0 0 1 -0.75,0.75 0.75,0.75 0 0 1 -0.75,-0.75 0.75,0.75 0 0 1 0.75,-0.75 0.75,0.75 0 0 1 0.75,0.75"
       id="circle30" />
    <path
       style="fill:#000000"
       d="m 85.369003,112.833 a 0.75,0.75 0 0 1 -0.75,0.75 0.75,0.75 0 0 1 -0.75,-0.75 0.75,0.75 0 0 1 0.75,-0.75 0.75,0.75 0 0 1 0.75,0.75"
       id="circle32" />
    <path
       style="fill:#000000"
       d="m 98.135002,203.83099 a 0.75,0.75 0 0 1 -0.75,0.75 0.75,0.75 0 0 1 -0.75,-0.75 0.75,0.75 0 0 1 0.75,-0.75 0.75,0.75 0 0 1 0.75,0.75"
       id="circle34" />
    <path
       style="fill:#000000"
       d="m 198.683,174.75301 a 0.75,0.75 0 0 1 -0.75,0.75 0.75,0.75 0 0 1 -0.75,-0.75 0.75,0.75 0 0 1 0.75,-0.75 0.75,0.75 0 0 1 0.75,0.75"
       id="circle36" />
    <path
       style="fill:#000000"
       d="m 91.672997,134.086 a 0.75,0.75 0 0 1 -0.75,0.75 0.75,0.75 0 0 1 -0.75,-0.75 0.75,0.75 0 0 1 0.75,-0.75 0.75,0.75 0 0 1 0.75,0.75"
       id="circle38" />
    <path
       style="fill:#000000"
       d="m 118.048,241.022 a 0.75,0.75 0 0 1 -0.75,0.75 0.75,0.75 0 0 1 -0.75,-0.75 0.75,0.75 0 0 1 0.75,-0.75 0.75,0.75 0 0 1 0.75,0.75"
       id="circle40" />
    <path
       style="fill:#000000"
       d="m 6.829,261.08701 a 0.75,0.75 0 0 1 -0.75,0.75 0.75,0.75 0 0 1 -0.75,-0.75 0.75,0.75 0 0 1 0.75,-0.75 0.75,0.75 0 0 1 0.75,0.75"
       id="circle42" />
    <path
       style="fill:#000000"
       d="m 68.928001,144.116 a 0.75,0.75 0 0 1 -0.75,0.75 0.75,0.75 0 0 1 -0.75,-0.75 0.75,0.75 0 0 1 0.75,-0.75 0.75,0.75 0 0 1 0.75,0.75"
       id="circle44" />
    <path
       style="fill:#000000"
       d="m 182.142,124.04 a 0.75,0.75 0 0 1 -0.75,0.75 0.75,0.75 0 0 1 -0.75,-0.75 0.75,0.75 0 0 1 0.75,-0.75 0.75,0.75 0 0 1 0.75,0.75"
       id="circle46" />
    <path
       style="fill:#000000"
       d="m 22.336,131.263 a 0.75,0.75 0 0 1 -0.75,0.75 0.75,0.75 0 0 1 -0.75,-0.75 0.75,0.75 0 0 1 0.75,-0.75 0.75,0.75 0 0 1 0.75,0.75"
       id="circle48" />
    <path
       style="fill:#000000"
       d="m 177.535,233.58701 a 0.75,0.75 0 0 1 -0.75,0.75 0.75,0.75 0 0 1 -0.75,-0.75 0.75,0.75 0 0 1 0.75,-0.75 0.75,0.75 0 0 1 0.75,0.75"
       id="circle50" />
    <path
       style="fill:#000000"
       d="m 156.27901,142.26401 a 0.75,0.75 0 0 1 -0.75,0.75 0.75,0.75 0 0 1 -0.75,-0.75 0.75,0.75 0 0 1 0.75,-0.75 0.75,0.75 0 0 1 0.75,0.75"
       id="circle52" />
    <path
       style="fill:#000000"
       d="m 245.45399,150.32401 a 0.75,0.75 0 0 1 -0.75,0.75 0.75,0.75 0 0 1 -0.75,-0.75 0.75,0.75 0 0 1 0.75,-0.75 0.75,0.75 0 0 1 0.75,0.75"
       id="circle54" />
    <path
       style="fill:#000000"
       d="m 49.813,199.257 a 0.75,0.75 0 0 1 -0.75,0.75 0.75,0.75 0 0 1 -0.75,-0.75 0.75,0.75 0 0 1 0.75,-0.75 0.75,0.75 0 0 1 0.75,0.75"
       id="circle56" />
    <path
       style="fill:#000000"
       d="m 123.21,141.205 a 0.75,0.75 0 0 1 -0.75,0.75 0.75,0.75 0 0 1 -0.75,-0.75 0.75,0.75 0 0 1 0.75,-0.75 0.75,0.75 0 0 1 0.75,0.75"
       id="circle58" />
    <path
       style="fill:#000000"
       d="m 212.739,203.784 a 0.75,0.75 0 0 1 -0.75,0.75 0.75,0.75 0 0 1 -0.75,-0.75 0.75,0.75 0 0 1 0.75,-0.75 0.75,0.75 0 0 1 0.75,0.75"
       id="circle60" />
    <path
       style="fill:#000000"
       d="m 19.785999,188.33099 a 0.75,0.75 0 0 1 -0.75,0.75 0.75,0.75 0 0 1 -0.75,-0.75 0.75,0.75 0 0 1 0.75,-0.75 0.75,0.75 0 0 1 0.75,0.75"
       id="circle62" />
    <path
       style="fill:#000000"
       d="m 210.022,153.65401 a 0.75,0.75 0 0 1 -0.75,0.75 0.75,0.75 0 0 1 -0.75,-0.75 0.75,0.75 0 0 1 0.75,-0.75 0.75,0.75 0 0 1 0.75,0.75"
       id="circle64" />
    <path
       style="fill:#000000"
       d="m 185.03799,170.351 a 0.75,0.75 0 0 1 -0.75,0.75 0.75,0.75 0 0 1 -0.75,-0.75 0.75,0.75 0 0 1 0.75,-0.75 0.75,0.75 0 0 1 0.75,0.75"
       id="circle66" />
    <path
       style="fill:#000000"
       d="m 132.31799,260.94199 a 0.75,0.75 0 0 1 -0.75,0.75 0.75,0.75 0 0 1 -0.75,-0.75 0.75,0.75 0 0 1 0.75,-0.75 0.75,0.75 0 0 1 0.75,0.75"
       id="circle68" />
    <path
       style="fill:#000000"
       d="m 75.503998,182.812 a 0.75,0.75 0 0 1 -0.75,0.75 0.75,0.75 0 0 1 -0.75,-0.75 0.75,0.75 0 0 1 0.75,-0.75 0.75,0.75 0 0 1 0.75,0.75"
       id="circle70" />
    <path
       style="fill:#000000"
       d="m 246.58701,213.64799 a 0.75,0.75 0 0 1 -0.75,0.75 0.75,0.75 0 0 1 -0.75,-0.75 0.75,0.75 0 0 1 0.75,-0.75 0.75,0.75 0 0 1 0.75,0.75"
       id="circle72" />
    <path
       style="fill:#000000"
       d="m 26.313999,172.045 a 0.5,0.5 0 0 1 -0.5,0.5 0.5,0.5 0 0 1 -0.5,-0.5 0.5,0.5 0 0 1 0.5,-0.5 0.5,0.5 0 0 1 0.5,0.5"
       id="circle74" />
    <path
       style="fill:#000000"
       d="m 95.000999,146.539 a 0.5,0.5 0 0 1 -0.5,0.5 0.5,0.5 0 0 1 -0.5,-0.5 0.5,0.5 0 0 1 0.5,-0.5 0.5,0.5 0 0 1 0.5,0.5"
       id="circle76" />
    <path
       style="fill:#000000"
       d="m 9.8109999,205.282 a 0.5,0.5 0 0 1 -0.5,0.5 0.5,0.5 0 0 1 -0.5,-0.5 0.5,0.5 0 0 1 0.5,-0.5 0.5,0.5 0 0 1 0.5,0.5"
       id="circle78" />
    <path
       style="fill:#000000"
       d="m 80.620003,170.08299 a 0.5,0.5 0 0 1 -0.5,0.5 0.5,0.5 0 0 1 -0.5,-0.5 0.5,0.5 0 0 1 0.5,-0.5 0.5,0.5 0 0 1 0.5,0.5"
       id="circle80" />
    <path
       style="fill:#000000"
       d="m 144.3,130.812 a 0.5,0.5 0 0 1 -0.5,0.5 0.5,0.5 0 0 1 -0.5,-0.5 0.5,0.5 0 0 1 0.5,-0.5 0.5,0.5 0 0 1 0.5,0.5"
       id="circle82" />
    <path
       style="fill:#000000"
       d="m 93.328003,234.159 a 0.5,0.5 0 0 1 -0.5,0.5 0.5,0.5 0 0 1 -0.5,-0.5 0.5,0.5 0 0 1 0.5,-0.5 0.5,0.5 0 0 1 0.5,0.5"
       id="circle84" />
    <path
       style="fill:#000000"
       d="m 112.85,220.29601 a 0.5,0.5 0 0 1 -0.5,0.5 0.5,0.5 0 0 1 -0.5,-0.5 0.5,0.5 0 0 1 0.5,-0.5 0.5,0.5 0 0 1 0.5,0.5"
       id="circle86" />
    <path
       style="fill:#000000"
       d="m 181.341,208.66901 a 0.5,0.5 0 0 1 -0.5,0.5 0.5,0.5 0 0 1 -0.5,-0.5 0.5,0.5 0 0 1 0.5,-0.5 0.5,0.5 0 0 1 0.5,0.5"
       id="circle88" />
    <path
       style="fill:#000000"
       d="m 155.933,219.408 a 0.5,0.5 0 0 1 -0.5,0.5 0.5,0.5 0 0 1 -0.5,-0.5 0.5,0.5 0 0 1 0.5,-0.5 0.5,0.5 0 0 1 0.5,0.5"
       id="circle90" />
    <path
       style="fill:#000000"
       d="m 96.170998,191.30701 a 0.5,0.5 0 0 1 -0.5,0.5 0.5,0.5 0 0 1 -0.5,-0.5 0.5,0.5 0 0 1 0.5,-0.5 0.5,0.5 0 0 1 0.5,0.5"
       id="circle92" />
    <path
       style="fill:#000000"
       d="m 218.05099,229.51401 a 0.5,0.5 0 0 1 -0.5,0.5 0.5,0.5 0 0 1 -0.5,-0.5 0.5,0.5 0 0 1 0.5,-0.5 0.5,0.5 0 0 1 0.5,0.5"
       id="circle94" />
    <path
       style="fill:#000000"
       d="m 64.155998,256.76001 a 0.5,0.5 0 0 1 -0.5,0.5 0.5,0.5 0 0 1 -0.5,-0.5 0.5,0.5 0 0 1 0.5,-0.5 0.5,0.5 0 0 1 0.5,0.5"
       id="circle96" />
    <path
       style="fill:#000000"
       d="m 57.532001,181.45799 a 0.5,0.5 0 0 1 -0.5,0.5 0.5,0.5 0 0 1 -0.5,-0.5 0.5,0.5 0 0 1 0.5,-0.5 0.5,0.5 0 0 1 0.5,0.5"
       id="circle98" />
    <path
       style="fill:#000000"
       d="m 122.651,202.358 a 0.5,0.5 0 0 1 -0.5,0.5 0.5,0.5 0 0 1 -0.5,-0.5 0.5,0.5 0 0 1 0.5,-0.5 0.5,0.5 0 0 1 0.5,0.5"
       id="circle100" />
    <path
       style="fill:#000000"
       d="m 134.448,210.036 a 0.5,0.5 0 0 1 -0.5,0.5 0.5,0.5 0 0 1 -0.5,-0.5 0.5,0.5 0 0 1 0.5,-0.5 0.5,0.5 0 0 1 0.5,0.5"
       id="circle102" />
    <path
       style="fill:#000000"
       d="m 34.998001,263.15302 a 0.5,0.5 0 0 1 -0.5,0.5 0.5,0.5 0 0 1 -0.5,-0.5 0.5,0.5 0 0 1 0.5,-0.5 0.5,0.5 0 0 1 0.5,0.5"
       id="circle104" />
    <path
       style="fill:#000000"
       d="m 69.587997,208.242 a 0.5,0.5 0 0 1 -0.5,0.5 0.5,0.5 0 0 1 -0.5,-0.5 0.5,0.5 0 0 1 0.5,-0.5 0.5,0.5 0 0 1 0.5,0.5"
       id="circle106" />
    <path
       style="fill:#000000"
       d="m 227.088,159.729 a 0.5,0.5 0 0 1 -0.5,0.5 0.5,0.5 0 0 1 -0.5,-0.5 0.5,0.5 0 0 1 0.5,-0.5 0.5,0.5 0 0 1 0.5,0.5"
       id="circle108" />
    <path
       style="fill:#000000"
       d="m 82.984001,221.534 a 0.5,0.5 0 0 1 -0.5,0.5 0.5,0.5 0 0 1 -0.5,-0.5 0.5,0.5 0 0 1 0.5,-0.5 0.5,0.5 0 0 1 0.5,0.5"
       id="circle110" />
    <path
       style="fill:#000000"
       d="m 245.495,194.964 a 0.5,0.5 0 0 1 -0.5,0.5 0.5,0.5 0 0 1 -0.5,-0.5 0.5,0.5 0 0 1 0.5,-0.5 0.5,0.5 0 0 1 0.5,0.5"
       id="circle112" />
    <path
       style="fill:#000000"
       d="m 47.715,153.10899 a 0.5,0.5 0 0 1 -0.5,0.5 0.5,0.5 0 0 1 -0.5,-0.5 0.5,0.5 0 0 1 0.5,-0.5 0.5,0.5 0 0 1 0.5,0.5"
       id="circle114" />
    <path
       style="fill:#000000"
       d="m 235.71201,139.70799 a 0.5,0.5 0 0 1 -0.5,0.5 0.5,0.5 0 0 1 -0.5,-0.5 0.5,0.5 0 0 1 0.5,-0.5 0.5,0.5 0 0 1 0.5,0.5"
       id="circle116" />
    <path
       style="fill:#000000"
       d="m 205.381,195.71201 a 0.5,0.5 0 0 1 -0.5,0.5 0.5,0.5 0 0 1 -0.5,-0.5 0.5,0.5 0 0 1 0.5,-0.5 0.5,0.5 0 0 1 0.5,0.5"
       id="circle118" />
    <path
       style="fill:#000000"
       d="m 12.006,226.92101 a 0.5,0.5 0 0 1 -0.5,0.5 0.5,0.5 0 0 1 -0.5,-0.5 0.5,0.5 0 0 1 0.5,-0.5 0.5,0.5 0 0 1 0.5,0.5"
       id="circle120" />
    <path
       style="fill:#000000"
       d="m 188.39301,141.409 a 0.5,0.5 0 0 1 -0.5,0.5 0.5,0.5 0 0 1 -0.5,-0.5 0.5,0.5 0 0 1 0.5,-0.5 0.5,0.5 0 0 1 0.5,0.5"
       id="circle122" />
    <path
       style="fill:#000000"
       d="m 49.110001,225.002 a 0.5,0.5 0 0 1 -0.5,0.5 0.5,0.5 0 0 1 -0.5,-0.5 0.5,0.5 0 0 1 0.5,-0.5 0.5,0.5 0 0 1 0.5,0.5"
       id="circle124" />
    <path
       style="fill:#000000"
       d="m 105.904,251.33099 a 0.5,0.5 0 0 1 -0.5,0.5 0.5,0.5 0 0 1 -0.5,-0.5 0.5,0.5 0 0 1 0.5,-0.5 0.5,0.5 0 0 1 0.5,0.5"
       id="circle126" />
    <path
       style="fill:#000000"
       d="m 157.761,241.00101 a 0.5,0.5 0 0 1 -0.5,0.5 0.5,0.5 0 0 1 -0.5,-0.5 0.5,0.5 0 0 1 0.5,-0.5 0.5,0.5 0 0 1 0.5,0.5"
       id="circle128" />
    <path
       style="fill:#000000"
       d="m 61.154999,172.008 a 0.5,0.5 0 0 1 -0.5,0.5 0.5,0.5 0 0 1 -0.5,-0.5 0.5,0.5 0 0 1 0.5,-0.5 0.5,0.5 0 0 1 0.5,0.5"
       id="circle130" />
    <path
       style="fill:#000000"
       d="m 148.86,228.5 a 0.5,0.5 0 0 1 -0.5,0.5 0.5,0.5 0 0 1 -0.5,-0.5 0.5,0.5 0 0 1 0.5,-0.5 0.5,0.5 0 0 1 0.5,0.5"
       id="circle132" />
    <path
       style="fill:#000000"
       d="m 192.476,218.63901 a 0.5,0.5 0 0 1 -0.5,0.5 0.5,0.5 0 0 1 -0.5,-0.5 0.5,0.5 0 0 1 0.5,-0.5 0.5,0.5 0 0 1 0.5,0.5"
       id="circle134" />
    <path
       style="fill:#000000"
       d="m 149.644,248.03799 a 0.5,0.5 0 0 1 -0.5,0.5 0.5,0.5 0 0 1 -0.5,-0.5 0.5,0.5 0 0 1 0.5,-0.5 0.5,0.5 0 0 1 0.5,0.5"
       id="circle136" />
    <path
       style="fill:#000000"
       d="m 129.43201,175.131 a 0.5,0.5 0 0 1 -0.5,0.5 0.5,0.5 0 0 1 -0.5,-0.5 0.5,0.5 0 0 1 0.5,-0.5 0.5,0.5 0 0 1 0.5,0.5"
       id="circle138" />
    <path
       style="fill:#000000"
       d="m 137.492,192.12 a 0.5,0.5 0 0 1 -0.5,0.5 0.5,0.5 0 0 1 -0.5,-0.5 0.5,0.5 0 0 1 0.5,-0.5 0.5,0.5 0 0 1 0.5,0.5"
       id="circle140" />
    <path
       style="fill:#000000"
       d="m 136.724,236.795 a 0.5,0.5 0 0 1 -0.5,0.5 0.5,0.5 0 0 1 -0.5,-0.5 0.5,0.5 0 0 1 0.5,-0.5 0.5,0.5 0 0 1 0.5,0.5"
       id="circle142" />
    <path
       style="fill:#000000"
       d="m 225.36099,191.97 a 0.5,0.5 0 0 1 -0.5,0.5 0.5,0.5 0 0 1 -0.5,-0.5 0.5,0.5 0 0 1 0.5,-0.5 0.5,0.5 0 0 1 0.5,0.5"
       id="circle144" />
    <path
       style="fill:#000000"
       d="m 236.748,228.364 a 0.5,0.5 0 0 1 -0.5,0.5 0.5,0.5 0 0 1 -0.5,-0.5 0.5,0.5 0 0 1 0.5,-0.5 0.5,0.5 0 0 1 0.5,0.5"
       id="circle146" />
    <path
       style="fill:#000000"
       d="m 152.995,188.758 a 0.5,0.5 0 0 1 -0.5,0.5 0.5,0.5 0 0 1 -0.5,-0.5 0.5,0.5 0 0 1 0.5,-0.5 0.5,0.5 0 0 1 0.5,0.5"
       id="circle148" />
    <path
       style="fill:#000000"
       d="m 155.25301,205.38901 a 0.5,0.5 0 0 1 -0.5,0.5 0.5,0.5 0 0 1 -0.5,-0.5 0.5,0.5 0 0 1 0.5,-0.5 0.5,0.5 0 0 1 0.5,0.5"
       id="circle150" />
    <path
       style="fill:#000000"
       d="m 114.258,163.571 a 0.5,0.5 0 0 1 -0.5,0.5 0.5,0.5 0 0 1 -0.5,-0.5 0.5,0.5 0 0 1 0.5,-0.5 0.5,0.5 0 0 1 0.5,0.5"
       id="circle152" />
    <path
       style="fill:#000000"
       d="m 87.905998,245.694 a 0.5,0.5 0 0 1 -0.5,0.5 0.5,0.5 0 0 1 -0.5,-0.5 0.5,0.5 0 0 1 0.5,-0.5 0.5,0.5 0 0 1 0.5,0.5"
       id="circle154" />
    <path
       style="fill:#000000"
       d="m 20.302999,154.819 a 0.5,0.5 0 0 1 -0.5,0.5 0.5,0.5 0 0 1 -0.5,-0.5 0.5,0.5 0 0 1 0.5,-0.5 0.5,0.5 0 0 1 0.5,0.5"
       id="circle156" />
    <path
       style="fill:#000000"
       d="m 149.10699,157.71001 a 0.5,0.5 0 0 1 -0.5,0.5 0.5,0.5 0 0 1 -0.5,-0.5 0.5,0.5 0 0 1 0.5,-0.5 0.5,0.5 0 0 1 0.5,0.5"
       id="circle158" />
    <path
       style="fill:#000000"
       d="m 160.32001,176.401 a 0.5,0.5 0 0 1 -0.5,0.5 0.5,0.5 0 0 1 -0.5,-0.5 0.5,0.5 0 0 1 0.5,-0.5 0.5,0.5 0 0 1 0.5,0.5"
       id="circle160" />
    <path
       style="fill:#000000"
       d="m 242.552,170.82001 a 0.5,0.5 0 0 1 -0.5,0.5 0.5,0.5 0 0 1 -0.5,-0.5 0.5,0.5 0 0 1 0.5,-0.5 0.5,0.5 0 0 1 0.5,0.5"
       id="circle162" />
    <path
       style="fill:#000000"
       d="m 177.46001,187.18401 a 0.5,0.5 0 0 1 -0.5,0.5 0.5,0.5 0 0 1 -0.5,-0.5 0.5,0.5 0 0 1 0.5,-0.5 0.5,0.5 0 0 1 0.5,0.5"
       id="circle164" />
    <path
       style="fill:#000000"
       d="m 133.989,156.659 a 0.5,0.5 0 0 1 -0.5,0.5 0.5,0.5 0 0 1 -0.5,-0.5 0.5,0.5 0 0 1 0.5,-0.5 0.5,0.5 0 0 1 0.5,0.5"
       id="circle166" />
    <path
       style="fill:#000000"
       d="m 4.2690001,162.293 a 0.5,0.5 0 0 1 -0.5,0.5 0.5,0.5 0 0 1 -0.5,-0.5 0.5,0.5 0 0 1 0.5,-0.5 0.5,0.5 0 0 1 0.5,0.5"
       id="circle168" />
    <path
       style="fill:#000000"
       d="m 190.30701,186.464 a 0.5,0.5 0 0 1 -0.5,0.5 0.5,0.5 0 0 1 -0.5,-0.5 0.5,0.5 0 0 1 0.5,-0.5 0.5,0.5 0 0 1 0.5,0.5"
       id="circle170" />
    <path
       style="fill:#000000"
       d="m 45.486,241.858 a 0.5,0.5 0 0 1 -0.5,0.5 0.5,0.5 0 0 1 -0.5,-0.5 0.5,0.5 0 0 1 0.5,-0.5 0.5,0.5 0 0 1 0.5,0.5"
       id="circle172" />
    <path
       style="fill:#000000"
       d="m 25.986,211.10201 a 0.5,0.5 0 0 1 -0.5,0.5 0.5,0.5 0 0 1 -0.5,-0.5 0.5,0.5 0 0 1 0.5,-0.5 0.5,0.5 0 0 1 0.5,0.5"
       id="circle174" />
    <path
       style="fill:#000000"
       d="m 73.442001,205.54401 a 0.5,0.5 0 0 1 -0.5,0.5 0.5,0.5 0 0 1 -0.5,-0.5 0.5,0.5 0 0 1 0.5,-0.5 0.5,0.5 0 0 1 0.5,0.5"
       id="circle176" />
    <path
       style="fill:#000000"
       d="m 200.884,236.371 a 0.5,0.5 0 0 1 -0.5,0.5 0.5,0.5 0 0 1 -0.5,-0.5 0.5,0.5 0 0 1 0.5,-0.5 0.5,0.5 0 0 1 0.5,0.5"
       id="circle178" />
    <path
       style="fill:#000000"
       d="m 262.41901,137.30099 a 0.5,0.5 0 0 1 -0.5,0.5 0.5,0.5 0 0 1 -0.5,-0.5 0.5,0.5 0 0 1 0.5,-0.5 0.5,0.5 0 0 1 0.5,0.5"
       id="circle180" />
    <path
       style="fill:#000000"
       d="m 256.073,249.547 a 0.5,0.5 0 0 1 -0.5,0.5 0.5,0.5 0 0 1 -0.5,-0.5 0.5,0.5 0 0 1 0.5,-0.5 0.5,0.5 0 0 1 0.5,0.5"
       id="circle182" />
    <path
       style="fill:#000000"
       d="m 172.401,160.304 a 0.5,0.5 0 0 1 -0.5,0.5 0.5,0.5 0 0 1 -0.5,-0.5 0.5,0.5 0 0 1 0.5,-0.5 0.5,0.5 0 0 1 0.5,0.5"
       id="circle184" />
    <path
       style="fill:#000000"
       d="m 229.01199,240.963 a 0.5,0.5 0 0 1 -0.5,0.5 0.5,0.5 0 0 1 -0.5,-0.5 0.5,0.5 0 0 1 0.5,-0.5 0.5,0.5 0 0 1 0.5,0.5"
       id="circle186" />
    <path
       style="fill:#000000"
       d="m 93.992996,175.19701 a 0.5,0.5 0 0 1 -0.5,0.5 0.5,0.5 0 0 1 -0.5,-0.5 0.5,0.5 0 0 1 0.5,-0.5 0.5,0.5 0 0 1 0.5,0.5"
       id="circle188" />
    <path
       style="fill:#000000"
       d="m 171.842,217.394 a 0.5,0.5 0 0 1 -0.5,0.5 0.5,0.5 0 0 1 -0.5,-0.5 0.5,0.5 0 0 1 0.5,-0.5 0.5,0.5 0 0 1 0.5,0.5"
       id="circle190" />
    <path
       style="fill:#000000"
       d="m 225.086,205.526 a 0.5,0.5 0 0 1 -0.5,0.5 0.5,0.5 0 0 1 -0.5,-0.5 0.5,0.5 0 0 1 0.5,-0.5 0.5,0.5 0 0 1 0.5,0.5"
       id="circle192" />
    <path
       style="fill:#000000"
       d="m 255.91299,183.25301 a 0.5,0.5 0 0 1 -0.5,0.5 0.5,0.5 0 0 1 -0.5,-0.5 0.5,0.5 0 0 1 0.5,-0.5 0.5,0.5 0 0 1 0.5,0.5"
       id="circle194" />
    <path
       style="fill:#000000"
       d="m 173.83099,200.33501 a 0.5,0.5 0 0 1 -0.5,0.5 0.5,0.5 0 0 1 -0.5,-0.5 0.5,0.5 0 0 1 0.5,-0.5 0.5,0.5 0 0 1 0.5,0.5"
       id="circle196" />
    <path
       style="fill:#000000"
       d="m 171.94099,258.517 a 0.5,0.5 0 0 1 -0.5,0.5 0.5,0.5 0 0 1 -0.5,-0.5 0.5,0.5 0 0 1 0.5,-0.5 0.5,0.5 0 0 1 0.5,0.5"
       id="circle198" />
    <path
       style="fill:#000000"
       d="m 147.532,101.938 a 1,1 0 0 1 -1,1 1,1 0 0 1 -1,-1 1,1 0 0 1 1,-1 1,1 0 0 1 1,1"
       id="circle200" />
    <path
       style="fill:#000000"
       d="m 239.56599,24.408001 a 1,1 0 0 1 -1,1 1,1 0 0 1 -1,-1 1,1 0 0 1 1,-1 1,1 0 0 1 1,1"
       id="circle202" />
    <path
       style="fill:#000000"
       d="m 227.23399,113.619 a 1,1 0 0 1 -1,1 1,1 0 0 1 -1,-1 1,1 0 0 1 1,-1 1,1 0 0 1 1,1"
       id="circle204" />
    <path
       style="fill:#000000"
       d="m 114.234,31.082001 a 1,1 0 0 1 -1,1 1,1 0 0 1 -1,-1 1,1 0 0 1 1,-1 1,1 0 0 1 1,1"
       id="circle206" />
    <path
       style="fill:#000000"
       d="m 43.976002,99.199997 a 1,1 0 0 1 -1,1.000003 1,1 0 0 1 -1,-1.000003 1,1 0 0 1 1,-1 1,1 0 0 1 1,1"
       id="circle208" />
    <path
       style="fill:#000000"
       d="m 31.024,26.107 a 1,1 0 0 1 -1,1 1,1 0 0 1 -1,-1 1,1 0 0 1 1,-1 1,1 0 0 1 1,1"
       id="circle210" />
    <path
       style="fill:#000000"
       d="m 55.52,59.313 a 1,1 0 0 1 -1,1 1,1 0 0 1 -1,-1 1,1 0 0 1 1,-1 1,1 0 0 1 1,1"
       id="circle212" />
    <path
       style="fill:#000000"
       d="m 194.942,52.130001 a 1,1 0 0 1 -1,1 1,1 0 0 1 -1,-1 1,1 0 0 1 1,-1 1,1 0 0 1 1,1"
       id="circle214" />
    <path
       style="fill:#000000"
       d="m 13.079,114.412 a 0.75,0.75 0 0 1 -0.75,0.75 0.75,0.75 0 0 1 -0.75,-0.75 0.75,0.75 0 0 1 0.75,-0.75 0.75,0.75 0 0 1 0.75,0.75"
       id="circle216" />
    <path
       style="fill:#000000"
       d="m 83.925003,81.274002 a 0.75,0.75 0 0 1 -0.75,0.75 0.75,0.75 0 0 1 -0.75,-0.75 0.75,0.75 0 0 1 0.75,-0.75 0.75,0.75 0 0 1 0.75,0.75"
       id="circle218" />
    <path
       style="fill:#000000"
       d="m 160.929,51.450001 a 0.75,0.75 0 0 1 -0.75,0.75 0.75,0.75 0 0 1 -0.75,-0.75 0.75,0.75 0 0 1 0.75,-0.75 0.75,0.75 0 0 1 0.75,0.75"
       id="circle220" />
    <path
       style="fill:#000000"
       d="m 7.2160001,18.59 a 0.75,0.75 0 0 1 -0.75,0.75 0.75,0.75 0 0 1 -0.75,-0.75 0.75,0.75 0 0 1 0.75,-0.75 0.75,0.75 0 0 1 0.75,0.75"
       id="circle222" />
    <path
       style="fill:#000000"
       d="m 184.606,83.168999 a 0.75,0.75 0 0 1 -0.75,0.75 0.75,0.75 0 0 1 -0.75,-0.75 0.75,0.75 0 0 1 0.75,-0.75 0.75,0.75 0 0 1 0.75,0.75"
       id="circle224" />
    <path
       style="fill:#000000"
       d="m 114.616,67.388 a 0.75,0.75 0 0 1 -0.75,0.75 0.75,0.75 0 0 1 -0.75,-0.75 0.75,0.75 0 0 1 0.75,-0.75 0.75,0.75 0 0 1 0.75,0.75"
       id="circle226" />
    <path
       style="fill:#000000"
       d="m 26.971001,79.800003 a 0.75,0.75 0 0 1 -0.75,0.75 0.75,0.75 0 0 1 -0.75,-0.75 0.75,0.75 0 0 1 0.75,-0.75 0.75,0.75 0 0 1 0.75,0.75"
       id="circle228" />
    <path
       style="fill:#000000"
       d="m 216.435,131.41299 a 0.75,0.75 0 0 1 -0.75,0.75 0.75,0.75 0 0 1 -0.75,-0.75 0.75,0.75 0 0 1 0.75,-0.75 0.75,0.75 0 0 1 0.75,0.75"
       id="circle230" />
    <path
       style="fill:#000000"
       d="m 261.823,6.1020002 a 0.75,0.75 0 0 1 -0.75,0.75 0.75,0.75 0 0 1 -0.75,-0.75 0.75,0.75 0 0 1 0.75,-0.75 0.75,0.75 0 0 1 0.75,0.75"
       id="circle232" />
    <path
       style="fill:#000000"
       d="m 111.475,94.401001 a 0.75,0.75 0 0 1 -0.75,0.75 0.75,0.75 0 0 1 -0.75,-0.75 0.75,0.75 0 0 1 0.75,-0.75 0.75,0.75 0 0 1 0.75,0.75"
       id="circle234" />
    <path
       style="fill:#000000"
       d="m 134.47701,10.042 a 0.75,0.75 0 0 1 -0.75,0.75 0.75,0.75 0 0 1 -0.75,-0.75 0.75,0.75 0 0 1 0.75,-0.7500002 0.75,0.75 0 0 1 0.75,0.7500002"
       id="circle236" />
    <path
       style="fill:#000000"
       d="m 208.06,72.853996 a 0.75,0.75 0 0 1 -0.75,0.75 0.75,0.75 0 0 1 -0.75,-0.75 0.75,0.75 0 0 1 0.75,-0.75 0.75,0.75 0 0 1 0.75,0.75"
       id="circle238" />
    <path
       style="fill:#000000"
       d="m 76.843002,34.813 a 0.75,0.75 0 0 1 -0.75,0.75 0.75,0.75 0 0 1 -0.75,-0.75 0.75,0.75 0 0 1 0.75,-0.75 0.75,0.75 0 0 1 0.75,0.75"
       id="circle240" />
    <path
       style="fill:#000000"
       d="m 225.14301,42.582001 a 0.75,0.75 0 0 1 -0.75,0.75 0.75,0.75 0 0 1 -0.75,-0.75 0.75,0.75 0 0 1 0.75,-0.75 0.75,0.75 0 0 1 0.75,0.75"
       id="circle242" />
    <path
       style="fill:#000000"
       d="m 107.936,48.686001 a 0.75,0.75 0 0 1 -0.75,0.75 0.75,0.75 0 0 1 -0.75,-0.75 0.75,0.75 0 0 1 0.75,-0.75 0.75,0.75 0 0 1 0.75,0.75"
       id="circle244" />
    <path
       style="fill:#000000"
       d="m 216.235,95.441002 a 0.75,0.75 0 0 1 -0.75,0.75 0.75,0.75 0 0 1 -0.75,-0.75 0.75,0.75 0 0 1 0.75,-0.75 0.75,0.75 0 0 1 0.75,0.75"
       id="circle246" />
    <path
       style="fill:#000000"
       d="m 142.371,64.654999 a 0.75,0.75 0 0 1 -0.75,0.75 0.75,0.75 0 0 1 -0.75,-0.75 0.75,0.75 0 0 1 0.75,-0.75 0.75,0.75 0 0 1 0.75,0.75"
       id="circle248" />
    <path
       style="fill:#000000"
       d="m 236.842,66.728996 a 0.75,0.75 0 0 1 -0.75,0.75 0.75,0.75 0 0 1 -0.75,-0.75 0.75,0.75 0 0 1 0.75,-0.75 0.75,0.75 0 0 1 0.75,0.75"
       id="circle250" />
    <path
       style="fill:#000000"
       d="m 246.71201,118.413 a 0.75,0.75 0 0 1 -0.75,0.75 0.75,0.75 0 0 1 -0.75,-0.75 0.75,0.75 0 0 1 0.75,-0.75 0.75,0.75 0 0 1 0.75,0.75"
       id="circle252" />
    <path
       style="fill:#000000"
       d="m 198.72301,4.4699998 a 0.75,0.75 0 0 1 -0.75,0.75 0.75,0.75 0 0 1 -0.75,-0.75 0.75,0.75 0 0 1 0.75,-0.75 0.75,0.75 0 0 1 0.75,0.75"
       id="circle254" />
    <path
       style="fill:#000000"
       d="m 11.417,65.327003 a 0.75,0.75 0 0 1 -0.75,0.75 0.75,0.75 0 0 1 -0.7500002,-0.75 0.75,0.75 0 0 1 0.7500002,-0.75 0.75,0.75 0 0 1 0.75,0.75"
       id="circle256" />
    <path
       style="fill:#000000"
       d="m 169.826,21.618999 a 0.75,0.75 0 0 1 -0.75,0.75 0.75,0.75 0 0 1 -0.75,-0.75 0.75,0.75 0 0 1 0.75,-0.75 0.75,0.75 0 0 1 0.75,0.75"
       id="circle258" />
    <path
       style="fill:#000000"
       d="m 244.43401,89.393997 a 0.75,0.75 0 0 1 -0.75,0.75 0.75,0.75 0 0 1 -0.75,-0.75 0.75,0.75 0 0 1 0.75,-0.75 0.75,0.75 0 0 1 0.75,0.75"
       id="circle260" />
    <path
       style="fill:#000000"
       d="m 91.391998,15.924 a 0.75,0.75 0 0 1 -0.75,0.75 0.75,0.75 0 0 1 -0.75,-0.75 0.75,0.75 0 0 1 0.75,-0.75 0.75,0.75 0 0 1 0.75,0.75"
       id="circle262" />
    <path
       style="fill:#000000"
       d="m 203.617,25.202999 a 0.5,0.5 0 0 1 -0.5,0.5 0.5,0.5 0 0 1 -0.5,-0.5 0.5,0.5 0 0 1 0.5,-0.5 0.5,0.5 0 0 1 0.5,0.5"
       id="circle264" />
    <path
       style="fill:#000000"
       d="m 259.57401,18.679001 a 0.5,0.5 0 0 1 -0.5,0.5 0.5,0.5 0 0 1 -0.5,-0.5 0.5,0.5 0 0 1 0.5,-0.5 0.5,0.5 0 0 1 0.5,0.5"
       id="circle266" />
    <path
       style="fill:#000000"
       d="m 188.86,105.076 a 0.5,0.5 0 0 1 -0.5,0.5 0.5,0.5 0 0 1 -0.5,-0.5 0.5,0.5 0 0 1 0.5,-0.5 0.5,0.5 0 0 1 0.5,0.5"
       id="circle268" />
    <path
       style="fill:#000000"
       d="m 32.582001,60.833 a 0.5,0.5 0 0 1 -0.5,0.5 0.5,0.5 0 0 1 -0.5,-0.5 0.5,0.5 0 0 1 0.5,-0.5 0.5,0.5 0 0 1 0.5,0.5"
       id="circle270" />
    <path
       style="fill:#000000"
       d="m 89.417999,97.389999 a 0.5,0.5 0 0 1 -0.5,0.5 0.5,0.5 0 0 1 -0.5,-0.5 0.5,0.5 0 0 1 0.5,-0.5 0.5,0.5 0 0 1 0.5,0.5"
       id="circle272" />
    <path
       style="fill:#000000"
       d="m 52.605999,115.649 a 0.5,0.5 0 0 1 -0.5,0.5 0.5,0.5 0 0 1 -0.5,-0.5 0.5,0.5 0 0 1 0.5,-0.5 0.5,0.5 0 0 1 0.5,0.5"
       id="circle274" />
    <path
       style="fill:#000000"
       d="m 159.343,123.671 a 0.5,0.5 0 0 1 -0.5,0.5 0.5,0.5 0 0 1 -0.5,-0.5 0.5,0.5 0 0 1 0.5,-0.5 0.5,0.5 0 0 1 0.5,0.5"
       id="circle276" />
    <path
       style="fill:#000000"
       d="m 228.769,149.97701 a 0.5,0.5 0 0 1 -0.5,0.5 0.5,0.5 0 0 1 -0.5,-0.5 0.5,0.5 0 0 1 0.5,-0.5 0.5,0.5 0 0 1 0.5,0.5"
       id="circle278" />
    <path
       style="fill:#000000"
       d="m 105.423,106.209 a 0.5,0.5 0 0 1 -0.5,0.5 0.5,0.5 0 0 1 -0.5,-0.5 0.5,0.5 0 0 1 0.5,-0.5 0.5,0.5 0 0 1 0.5,0.5"
       id="circle280" />
    <path
       style="fill:#000000"
       d="m 152.86,28.098 a 0.5,0.5 0 0 1 -0.5,0.5 0.5,0.5 0 0 1 -0.5,-0.5 0.5,0.5 0 0 1 0.5,-0.5 0.5,0.5 0 0 1 0.5,0.5"
       id="circle282" />
    <path
       style="fill:#000000"
       d="m 229.772,175.95599 a 0.5,0.5 0 0 1 -0.5,0.5 0.5,0.5 0 0 1 -0.5,-0.5 0.5,0.5 0 0 1 0.5,-0.5 0.5,0.5 0 0 1 0.5,0.5"
       id="circle284" />
    <path
       style="fill:#000000"
       d="m 198.09801,109.619 a 0.5,0.5 0 0 1 -0.5,0.5 0.5,0.5 0 0 1 -0.5,-0.5 0.5,0.5 0 0 1 0.5,-0.5 0.5,0.5 0 0 1 0.5,0.5"
       id="circle286" />
    <path
       style="fill:#000000"
       d="m 200.43401,126.742 a 0.5,0.5 0 0 1 -0.5,0.5 0.5,0.5 0 0 1 -0.5,-0.5 0.5,0.5 0 0 1 0.5,-0.5 0.5,0.5 0 0 1 0.5,0.5"
       id="circle288" />
    <path
       style="fill:#000000"
       d="m 166.39,104.799 a 0.5,0.5 0 0 1 -0.5,0.5 0.5,0.5 0 0 1 -0.5,-0.5 0.5,0.5 0 0 1 0.5,-0.5 0.5,0.5 0 0 1 0.5,0.5"
       id="circle290" />
    <path
       style="fill:#000000"
       d="m 204.259,94.671997 a 0.5,0.5 0 0 1 -0.5,0.5 0.5,0.5 0 0 1 -0.5,-0.5 0.5,0.5 0 0 1 0.5,-0.5 0.5,0.5 0 0 1 0.5,0.5"
       id="circle292" />
    <path
       style="fill:#000000"
       d="m 126.005,87.856003 a 0.5,0.5 0 0 1 -0.5,0.5 0.5,0.5 0 0 1 -0.5,-0.5 0.5,0.5 0 0 1 0.5,-0.5 0.5,0.5 0 0 1 0.5,0.5"
       id="circle294" />
    <path
       style="fill:#000000"
       d="m 223.71201,79.489998 a 0.5,0.5 0 0 1 -0.5,0.5 0.5,0.5 0 0 1 -0.5,-0.5 0.5,0.5 0 0 1 0.5,-0.5 0.5,0.5 0 0 1 0.5,0.5"
       id="circle296" />
    <path
       style="fill:#000000"
       d="m 11.892,4.3330002 a 0.5,0.5 0 0 1 -0.5,0.5 0.5,0.5 0 0 1 -0.5,-0.5 0.5,0.5 0 0 1 0.5,-0.5 0.5,0.5 0 0 1 0.5,0.5"
       id="circle298" />
    <path
       style="fill:#000000"
       d="m 122.135,104.136 a 0.5,0.5 0 0 1 -0.5,0.5 0.5,0.5 0 0 1 -0.5,-0.5 0.5,0.5 0 0 1 0.5,-0.5 0.5,0.5 0 0 1 0.5,0.5"
       id="circle300" />
    <path
       style="fill:#000000"
       d="m 133.405,116.524 a 0.5,0.5 0 0 1 -0.5,0.5 0.5,0.5 0 0 1 -0.5,-0.5 0.5,0.5 0 0 1 0.5,-0.5 0.5,0.5 0 0 1 0.5,0.5"
       id="circle302" />
    <path
       style="fill:#000000"
       d="m 91.207001,46.448002 a 0.5,0.5 0 0 1 -0.5,0.5 0.5,0.5 0 0 1 -0.5,-0.5 0.5,0.5 0 0 1 0.5,-0.5 0.5,0.5 0 0 1 0.5,0.5"
       id="circle304" />
    <path
       style="fill:#000000"
       d="m 66.644997,97.177002 a 0.5,0.5 0 0 1 -0.5,0.5 0.5,0.5 0 0 1 -0.5,-0.5 0.5,0.5 0 0 1 0.5,-0.5 0.5,0.5 0 0 1 0.5,0.5"
       id="circle306" />
    <path
       style="fill:#000000"
       d="m 151.681,83.93 a 0.5,0.5 0 0 1 -0.5,0.5 0.5,0.5 0 0 1 -0.5,-0.5 0.5,0.5 0 0 1 0.5,-0.5 0.5,0.5 0 0 1 0.5,0.5"
       id="circle308" />
    <path
       style="fill:#000000"
       d="m 46.408001,12.875 a 0.5,0.5 0 0 1 -0.5,0.5 0.5,0.5 0 0 1 -0.5,-0.5 0.5,0.5 0 0 1 0.5,-0.5 0.5,0.5 0 0 1 0.5,0.5"
       id="circle310" />
    <path
       style="fill:#000000"
       d="m 170.52,89.361 a 0.5,0.5 0 0 1 -0.5,0.5 0.5,0.5 0 0 1 -0.5,-0.5 0.5,0.5 0 0 1 0.5,-0.5 0.5,0.5 0 0 1 0.5,0.5"
       id="circle312" />
    <path
       style="fill:#000000"
       d="m 36.548,112.885 a 0.5,0.5 0 0 1 -0.5,0.5 0.5,0.5 0 0 1 -0.5,-0.5 0.5,0.5 0 0 1 0.5,-0.5 0.5,0.5 0 0 1 0.5,0.5"
       id="circle314" />
    <path
       style="fill:#000000"
       d="m 2.143,91.860001 a 0.5,0.5 0 0 1 -0.5,0.5 0.5,0.5 0 0 1 -0.5,-0.5 0.5,0.5 0 0 1 0.5,-0.5 0.5,0.5 0 0 1 0.5,0.5"
       id="circle316" />
    <path
       style="fill:#000000"
       d="m 132.017,73.334 a 0.5,0.5 0 0 1 -0.5,0.5 0.5,0.5 0 0 1 -0.5,-0.5 0.5,0.5 0 0 1 0.5,-0.5 0.5,0.5 0 0 1 0.5,0.5"
       id="circle318" />
    <path
       style="fill:#000000"
       d="m 173.924,79.167999 a 0.5,0.5 0 0 1 -0.5,0.5 0.5,0.5 0 0 1 -0.5,-0.5 0.5,0.5 0 0 1 0.5,-0.5 0.5,0.5 0 0 1 0.5,0.5"
       id="circle320" />
    <path
       style="fill:#000000"
       d="m 59.959999,8.2530003 a 0.5,0.5 0 0 1 -0.5,0.5 0.5,0.5 0 0 1 -0.5,-0.5 0.5,0.5 0 0 1 0.5,-0.5 0.5,0.5 0 0 1 0.5,0.5"
       id="circle322" />
    <path
       style="fill:#000000"
       d="m 224.01601,23.396999 a 0.5,0.5 0 0 1 -0.5,0.5 0.5,0.5 0 0 1 -0.5,-0.5 0.5,0.5 0 0 1 0.5,-0.5 0.5,0.5 0 0 1 0.5,0.5"
       id="circle324" />
    <path
       style="fill:#000000"
       d="m 249.724,43.716999 a 0.5,0.5 0 0 1 -0.5,0.5 0.5,0.5 0 0 1 -0.5,-0.5 0.5,0.5 0 0 1 0.5,-0.5 0.5,0.5 0 0 1 0.5,0.5"
       id="circle326" />
    <path
       style="fill:#000000"
       d="m 201.992,39.060001 a 0.5,0.5 0 0 1 -0.5,0.5 0.5,0.5 0 0 1 -0.5,-0.5 0.5,0.5 0 0 1 0.5,-0.5 0.5,0.5 0 0 1 0.5,0.5"
       id="circle328" />
    <path
       style="fill:#000000"
       d="m 112.502,13.529 a 0.5,0.5 0 0 1 -0.5,0.5 0.5,0.5 0 0 1 -0.5,-0.5 0.5,0.5 0 0 1 0.5,-0.5 0.5,0.5 0 0 1 0.5,0.5"
       id="circle330" />
    <path
       style="fill:#000000"
       d="m 169.717,127.379 a 0.5,0.5 0 0 1 -0.5,0.5 0.5,0.5 0 0 1 -0.5,-0.5 0.5,0.5 0 0 1 0.5,-0.5 0.5,0.5 0 0 1 0.5,0.5"
       id="circle332" />
    <path
       style="fill:#000000"
       d="m 185.946,67.962997 a 0.5,0.5 0 0 1 -0.5,0.5 0.5,0.5 0 0 1 -0.5,-0.5 0.5,0.5 0 0 1 0.5,-0.5 0.5,0.5 0 0 1 0.5,0.5"
       id="circle334" />
    <path
       style="fill:#000000"
       d="m 216.92,117.416 a 0.5,0.5 0 0 1 -0.5,0.5 0.5,0.5 0 0 1 -0.5,-0.5 0.5,0.5 0 0 1 0.5,-0.5 0.5,0.5 0 0 1 0.5,0.5"
       id="circle336" />
    <path
       style="fill:#000000"
       d="m 180.459,43.043999 a 0.5,0.5 0 0 1 -0.5,0.5 0.5,0.5 0 0 1 -0.5,-0.5 0.5,0.5 0 0 1 0.5,-0.5 0.5,0.5 0 0 1 0.5,0.5"
       id="circle338" />
    <path
       style="fill:#000000"
       d="m 48.848,0.31200001 a 0.5,0.5 0 0 1 -0.5,0.5 0.5,0.5 0 0 1 -0.5,-0.5 0.5,0.5 0 0 1 0.5,-0.5 0.5,0.5 0 0 1 0.5,0.5"
       id="circle340" />
    <path
       style="fill:#000000"
       d="m 43.412998,132.73199 a 0.5,0.5 0 0 1 -0.5,0.5 0.5,0.5 0 0 1 -0.5,-0.5 0.5,0.5 0 0 1 0.5,-0.5 0.5,0.5 0 0 1 0.5,0.5"
       id="circle342" />
    <path
       style="fill:#000000"
       d="m 142.619,36.324001 a 0.5,0.5 0 0 1 -0.5,0.5 0.5,0.5 0 0 1 -0.5,-0.5 0.5,0.5 0 0 1 0.5,-0.5 0.5,0.5 0 0 1 0.5,0.5"
       id="circle344" />
    <path
       style="fill:#000000"
       d="m 229.73199,92.184998 a 0.5,0.5 0 0 1 -0.5,0.5 0.5,0.5 0 0 1 -0.5,-0.5 0.5,0.5 0 0 1 0.5,-0.5 0.5,0.5 0 0 1 0.5,0.5"
       id="circle346" />
    <path
       style="fill:#000000"
       d="m 99.273003,6.2940001 a 0.5,0.5 0 0 1 -0.5,0.5 0.5,0.5 0 0 1 -0.5,-0.5 0.5,0.5 0 0 1 0.5,-0.5 0.5,0.5 0 0 1 0.5,0.5"
       id="circle348" />
    <path
       style="fill:#000000"
       d="m 102.257,81.973999 a 0.5,0.5 0 0 1 -0.5,0.5 0.5,0.5 0 0 1 -0.5,-0.5 0.5,0.5 0 0 1 0.5,-0.5 0.5,0.5 0 0 1 0.5,0.5"
       id="circle350" />
    <path
       style="fill:#000000"
       d="m 63.285,38.611 a 0.5,0.5 0 0 1 -0.5,0.5 0.5,0.5 0 0 1 -0.5,-0.5 0.5,0.5 0 0 1 0.5,-0.5 0.5,0.5 0 0 1 0.5,0.5"
       id="circle352" />
    <path
       style="fill:#000000"
       d="m 158.70799,2.099 a 0.5,0.5 0 0 1 -0.5,0.5 0.5,0.5 0 0 1 -0.5,-0.5 0.5,0.5 0 0 1 0.5,-0.5 0.5,0.5 0 0 1 0.5,0.5"
       id="circle354" />
    <path
       style="fill:#000000"
       d="m 122.072,46.870998 a 0.5,0.5 0 0 1 -0.5,0.5 0.5,0.5 0 0 1 -0.5,-0.5 0.5,0.5 0 0 1 0.5,-0.5 0.5,0.5 0 0 1 0.5,0.5"
       id="circle356" />
    <path
       style="fill:#000000"
       d="m 53.925999,79.028999 a 0.5,0.5 0 0 1 -0.5,0.5 0.5,0.5 0 0 1 -0.5,-0.5 0.5,0.5 0 0 1 0.5,-0.5 0.5,0.5 0 0 1 0.5,0.5"
       id="circle358" />
    <path
       style="fill:#000000"
       d="m 31.872999,46.764999 a 0.5,0.5 0 0 1 -0.5,0.5 0.5,0.5 0 0 1 -0.5,-0.5 0.5,0.5 0 0 1 0.5,-0.5 0.5,0.5 0 0 1 0.5,0.5"
       id="circle360" />
    <path
       style="fill:#000000"
       d="m 86.018997,66.355003 a 0.5,0.5 0 0 1 -0.5,0.5 0.5,0.5 0 0 1 -0.5,-0.5 0.5,0.5 0 0 1 0.5,-0.5 0.5,0.5 0 0 1 0.5,0.5"
       id="circle362" />
    <path
       style="fill:#000000"
       d="m 10.195,46.980999 a 0.5,0.5 0 0 1 -0.5000003,0.5 0.5,0.5 0 0 1 -0.5,-0.5 0.5,0.5 0 0 1 0.5,-0.5 0.5,0.5 0 0 1 0.5000003,0.5"
       id="circle364" />
    <path
       style="fill:#000000"
       d="m 186.647,18.011999 a 0.5,0.5 0 0 1 -0.5,0.5 0.5,0.5 0 0 1 -0.5,-0.5 0.5,0.5 0 0 1 0.5,-0.5 0.5,0.5 0 0 1 0.5,0.5"
       id="circle366" />
    <path
       style="fill:#000000"
       d="m 212.94701,9.75 a 0.5,0.5 0 0 1 -0.5,0.5 0.5,0.5 0 0 1 -0.5,-0.5 0.5,0.5 0 0 1 0.5,-0.5 0.5,0.5 0 0 1 0.5,0.5"
       id="circle368" />
    <path
       style="fill:#000000"
       d="m 253.42799,55.866001 a 0.5,0.5 0 0 1 -0.5,0.5 0.5,0.5 0 0 1 -0.5,-0.5 0.5,0.5 0 0 1 0.5,-0.5 0.5,0.5 0 0 1 0.5,0.5"
       id="circle370" />
    <path
       style="fill:#000000"
       d="m 73.839996,56.742001 a 0.5,0.5 0 0 1 -0.5,0.5 0.5,0.5 0 0 1 -0.5,-0.5 0.5,0.5 0 0 1 0.5,-0.5 0.5,0.5 0 0 1 0.5,0.5"
       id="circle372" />
    <path
       style="fill:#000000"
       d="m 259.414,165.121 a 0.5,0.5 0 0 1 -0.5,0.5 0.5,0.5 0 0 1 -0.5,-0.5 0.5,0.5 0 0 1 0.5,-0.5 0.5,0.5 0 0 1 0.5,0.5"
       id="circle374" />
    <path
       style="fill:#000000"
       d="m 255.89301,79.112 a 0.5,0.5 0 0 1 -0.5,0.5 0.5,0.5 0 0 1 -0.5,-0.5 0.5,0.5 0 0 1 0.5,-0.5 0.5,0.5 0 0 1 0.5,0.5"
       id="circle376" />
    <path
       style="fill:#000000"
       d="m 236.237,9.1619997 a 0.5,0.5 0 0 1 -0.5,0.5 0.5,0.5 0 0 1 -0.5,-0.5 0.5,0.5 0 0 1 0.5,-0.5 0.5,0.5 0 0 1 0.5,0.5"
       id="circle378" />
    <path
       style="fill:#000000"
       d="m 217.092,60.581001 a 0.5,0.5 0 0 1 -0.5,0.5 0.5,0.5 0 0 1 -0.5,-0.5 0.5,0.5 0 0 1 0.5,-0.5 0.5,0.5 0 0 1 0.5,0.5"
       id="circle380" />
    <path
       style="fill:#000000"
       d="m 77.536003,129.075 a 0.5,0.5 0 0 1 -0.5,0.5 0.5,0.5 0 0 1 -0.5,-0.5 0.5,0.5 0 0 1 0.5,-0.5 0.5,0.5 0 0 1 0.5,0.5"
       id="circle382" />
    <path
       style="fill:#000000"
       d="m 244.325,102.243 a 0.5,0.5 0 0 1 -0.5,0.5 0.5,0.5 0 0 1 -0.5,-0.5 0.5,0.5 0 0 1 0.5,-0.5 0.5,0.5 0 0 1 0.5,0.5"
       id="circle384" />
  </g>
</svg>
